<svg version="1.0" xmlns="http://www.w3.org/2000/svg" width="801.000000ptpx" height="311.000000ptpx" viewBox="0 0 801.000000 311.000000" preserveAspectRatio="xMidYMid meet" transform="rotate(0) scale(1, 1)">
<metadata>
Created by potrace 1.16, written by Peter Selinger 2001-2019
</metadata>
<g transform="translate(0.000000,311.000000) scale(0.100000,-0.100000)" fill="#ffffff" stroke="none">
<path d="M3812 2899 c-88 -13 -172 -46 -172 -68 0 -10 11 -55 25 -101 14 -46&#10;25 -87 25 -92 0 -5 -12 -13 -27 -18 -16 -6 -37 -15 -48 -20 -11 -5 -49 -20&#10;-85 -34 -60 -24 -66 -25 -78 -9 -16 22 -9 28 75 73 79 42 86 60 51 130 -33 65&#10;-61 65 -185 -1 -147 -77 -213 -127 -213 -160 0 -10 27 -50 60 -90 38 -45 57&#10;-76 52 -84 -4 -8 -42 -50 -85 -94 -70 -71 -81 -79 -98 -68 -10 6 -19 14 -19&#10;17 0 3 25 34 55 68 30 35 55 72 55 83 0 11 -20 41 -45 67 -43 46 -45 47 -71&#10;32 -57 -31 -242 -265 -247 -312 -2 -23 15 -36 121 -90 34 -18 62 -36 62 -40 0&#10;-15 -82 -218 -90 -223 -4 -3 -17 -2 -29 3 -20 7 -20 8 9 92 l29 85 -24 20&#10;c-14 11 -45 28 -70 39 -44 17 -47 17 -65 1 -41 -37 -129 -382 -102 -399 6 -3&#10;45 -11 89 -17 138 -19 123 -1 123 -145 l0 -125 -27 3 c-26 3 -27 5 -28 73 -2&#10;114 -4 115 -90 115 -48 0 -77 -4 -82 -12 -25 -40 20 -371 54 -400 10 -8 40 -4&#10;115 16 56 15 105 23 109 19 4 -4 26 -55 48 -113 38 -97 40 -106 24 -117 -9 -7&#10;-20 -13 -24 -13 -4 0 -26 36 -48 80 -47 90 -53 93 -132 59 -45 -20 -49 -24&#10;-49 -55 0 -57 130 -299 177 -329 23 -15 27 -15 71 11 26 15 64 42 85 61 20 18&#10;41 33 47 33 10 0 149 -141 163 -166 4 -7 3 -23 -4 -35 -11 -21 -13 -20 -62 27&#10;-28 27 -54 52 -57 55 -18 21 -49 17 -88 -11 -92 -67 -79 -100 93 -231 76 -57&#10;166 -108 183 -102 6 3 12 11 12 18 0 7 11 26 24 42 13 15 33 50 45 76 18 38&#10;26 47 39 41 9 -4 44 -17 77 -29 100 -36 135 -56 135 -76 0 -29 -13 -30 -95 -3&#10;l-78 25 -27 -26 c-34 -33 -58 -100 -43 -123 9 -15 66 -36 236 -86 80 -24 162&#10;-32 171 -17 6 9 24 154 26 204 0 4 61 7 135 7 128 0 135 -1 135 -20 0 -11 -6&#10;-20 -12 -20 -9 0 -8 -4 2 -10 11 -7 5 -10 -25 -11 -22 -1 -51 -1 -65 0 -14 1&#10;-44 0 -67 -4 l-43 -6 0 -73 0 -73 45 -6 c92 -13 379 23 389 48 5 15 -17 105&#10;-39 158 -8 20 -15 42 -15 49 0 13 87 58 112 58 8 0 37 11 64 25 l49 25 18 -21&#10;c17 -22 17 -22 -45 -56 -34 -19 -72 -39 -85 -44 -30 -11 -29 -34 5 -100 24&#10;-49 30 -54 58 -53 64 3 303 141 337 195 11 17 -11 52 -81 132 -18 21 -32 44&#10;-30 51 2 8 38 50 80 95 62 65 82 81 98 76 28 -9 23 -20 -43 -99 l-57 -70 52&#10;-53 c29 -29 60 -53 69 -53 30 0 172 162 228 261 36 64 39 89 12 89 -11 0 -22&#10;4 -26 9 -3 6 -36 27 -74 47 -61 33 -68 40 -61 58 5 12 12 30 16 41 4 11 17 48&#10;29 82 27 73 44 95 67 82 18 -10 11 -55 -18 -129 -9 -22 -14 -46 -11 -54 7 -17&#10;104 -66 132 -66 32 0 45 31 105 260 22 83 26 145 10 155 -6 4 -56 11 -110 17&#10;l-100 11 0 123 c0 111 2 123 17 117 11 -4 14 -3 9 5 -9 16 7 15 22 0 7 -7 12&#10;-42 12 -88 0 -46 5 -81 12 -88 7 -7 40 -12 79 -12 l68 0 7 47 c14 95 -15 321&#10;-47 359 -14 18 -46 18 -95 0 -22 -7 -60 -16 -85 -20 l-45 -7 -21 48 c-54 121&#10;-71 184 -50 180 7 -1 11 4 10 11 -2 6 2 12 7 12 6 0 29 -38 51 -85 27 -56 47&#10;-85 58 -85 9 0 36 9 60 20 23 11 48 17 54 13 6 -3 7 -1 3 5 -4 7 -3 12 2 12&#10;48 0 -55 226 -157 344 l-37 42 -50 -35 c-28 -20 -67 -48 -86 -63 -19 -16 -39&#10;-28 -44 -28 -5 0 -47 38 -93 84 -75 76 -82 85 -71 105 11 22 11 22 53 -11 23&#10;-17 57 -45 75 -60 33 -28 33 -28 64 -11 29 17 88 80 88 94 0 9 -113 118 -172&#10;166 -59 48 -131 93 -150 93 -19 0 -55 -49 -94 -124 -20 -39 -36 -60 -45 -57&#10;-28 8 -125 41 -144 50 -11 5 -32 13 -47 20 -29 11 -34 26 -19 50 8 12 20 11&#10;83 -7 40 -12 81 -22 90 -22 32 0 76 99 63 141 -7 20 -49 36 -213 83 -170 49&#10;-174 49 -195 -17 -9 -30 -20 -81 -23 -115 l-7 -62 -113 0 c-90 0 -116 3 -129&#10;16 -29 29 -11 39 91 49 93 9 99 11 98 33 0 12 -1 49 -2 82 l-2 60 -97 -1 c-54&#10;-1 -126 -6 -161 -10z m196 -81 c3 -26 1 -28 -37 -28 -46 0 -141 -19 -156 -31&#10;-14 -10 -9 -97 7 -126 11 -22 15 -23 180 -23 192 0 179 -6 193 96 12 94 26&#10;136 44 128 9 -4 41 -12 72 -19 31 -7 74 -18 95 -25 22 -7 39 -12 39 -10 0 2&#10;10 -2 23 -9 25 -13 30 -49 8 -57 -8 -3 -35 2 -62 11 -26 9 -66 18 -90 22 -36&#10;5 -44 2 -54 -17 -6 -12 -14 -45 -17 -74 -5 -48 -3 -55 18 -70 13 -9 35 -16 49&#10;-16 14 0 72 -23 129 -50 57 -28 111 -48 120 -45 16 5 45 48 91 133 13 23 30&#10;42 38 42 20 0 186 -125 206 -155 11 -17 13 -26 4 -31 -7 -5 -8 -3 -3 6 5 9 4&#10;11 -3 6 -7 -4 -12 -14 -12 -22 0 -22 -9 -18 -64 29 -85 72 -92 74 -133 35 -49&#10;-47 -56 -63 -41 -92 17 -32 173 -203 204 -223 22 -14 26 -14 49 1 14 9 31 14&#10;38 10 7 -4 9 -4 5 1 -4 4 20 27 54 52 l60 45 29 -34 c15 -18 28 -40 29 -49 0&#10;-9 8 -27 18 -40 10 -13 31 -46 46 -72 l28 -48 -23 -20 c-12 -10 -25 -19 -29&#10;-19 -13 0 -30 25 -30 46 0 12 -15 44 -34 70 -29 43 -37 49 -69 49 -19 1 -35&#10;-2 -34 -6 1 -3 -13 -18 -30 -33 -39 -33 -40 -49 -11 -113 11 -27 33 -75 48&#10;-108 15 -33 33 -74 39 -91 10 -26 19 -33 46 -36 19 -2 31 0 29 4 -3 4 6 8 19&#10;8 14 0 44 7 67 15 23 8 49 15 56 15 19 0 33 -61 40 -178 l6 -102 -25 0 c-27 0&#10;-37 20 -37 80 0 19 -5 52 -11 74 l-11 39 -51 -6 c-29 -3 -64 -10 -79 -16 l-28&#10;-10 7 -143 c3 -79 9 -154 13 -168 7 -28 21 -33 129 -49 40 -6 77 -14 81 -16 5&#10;-3 0 -30 -11 -60 -10 -30 -19 -63 -19 -74 0 -11 -10 -44 -21 -75 -18 -46 -26&#10;-56 -45 -56 -31 0 -31 21 -2 106 18 49 20 68 12 81 -15 25 -52 41 -104 45&#10;l-44 3 -34 -90 c-18 -49 -44 -123 -57 -163 -28 -87 -28 -87 79 -147 36 -20 69&#10;-41 72 -47 3 -5 -9 -26 -28 -46 -20 -21 -57 -67 -84 -103 -48 -64 -71 -76 -96&#10;-51 -10 10 62 113 74 106 5 -3 8 4 8 15 0 11 5 23 10 26 21 13 8 36 -37 70&#10;-27 19 -57 35 -67 35 -20 0 -214 -185 -236 -225 -12 -22 -10 -28 24 -69 20&#10;-24 36 -47 36 -51 0 -3 11 -21 25 -39 l25 -33 -28 -26 c-16 -15 -32 -27 -38&#10;-27 -5 0 -34 -15 -64 -33 -74 -45 -116 -59 -128 -44 -27 36 -22 46 33 63 30&#10;10 55 21 55 26 0 4 5 8 11 8 5 0 7 -5 3 -12 -4 -7 -3 -8 5 -4 6 4 9 11 6 16&#10;-3 4 2 13 10 20 24 20 18 63 -15 108 -34 47 -49 51 -91 21 -16 -11 -29 -18&#10;-29 -14 0 3 -17 -3 -37 -14 -21 -11 -67 -30 -103 -42 -36 -12 -71 -27 -77 -32&#10;-18 -14 -16 -62 7 -137 23 -76 24 -86 8 -88 -7 -1 -60 -11 -118 -22 -144 -27&#10;-160 -26 -160 5 0 33 22 43 113 51 73 6 76 8 82 34 7 32 -3 99 -18 118 -7 9&#10;-55 12 -178 12 l-169 0 -6 -27 c-3 -16 -12 -53 -20 -84 -8 -31 -14 -69 -14&#10;-83 0 -31 1 -31 -91 -6 -139 37 -183 50 -190 57 -5 5 0 18 9 31 16 21 21 22&#10;47 12 44 -17 164 -47 163 -41 -1 3 1 13 4 21 13 36 24 141 15 147 -6 3 -23 7&#10;-38 9 -32 4 -112 36 -204 82 -72 36 -75 35 -137 -70 -54 -91 -60 -95 -100 -67&#10;-73 51 -178 141 -178 153 0 7 8 20 18 29 16 15 20 13 60 -24 24 -21 47 -39 51&#10;-39 5 0 14 -7 21 -15 26 -31 68 -7 115 67 l17 27 -51 54 c-28 30 -48 57 -43&#10;62 4 5 2 5 -4 2 -13 -7 -81 63 -76 78 2 5 0 7 -4 2 -4 -4 -22 7 -40 24 l-32&#10;31 -56 -41 c-30 -23 -58 -41 -61 -41 -4 0 -18 -9 -32 -20 -37 -29 -46 -25 -72&#10;23 -12 23 -41 75 -63 115 -42 77 -44 102 -5 102 20 0 30 -13 61 -75 34 -68 40&#10;-75 67 -75 39 0 82 23 102 54 16 24 15 29 -32 138 -27 62 -52 127 -55 145 -12&#10;55 -25 58 -124 33 -48 -12 -93 -22 -101 -23 -17 -2 -48 129 -53 224 l-3 64 32&#10;3 31 3 6 -58 c4 -32 10 -78 14 -103 l7 -45 47 2 c25 0 59 7 75 15 l28 13 0&#10;164 c0 135 -3 165 -15 172 -8 4 -54 13 -101 19 -102 14 -115 20 -101 47 6 11&#10;13 39 16 63 3 23 14 66 25 94 11 28 22 59 25 69 6 18 23 22 45 8 11 -7 9 -23&#10;-12 -89 -28 -92 -26 -98 38 -131 71 -38 107 -21 120 54 4 22 18 63 31 90 12&#10;28 32 74 44 104 l21 53 -40 37 c-22 20 -61 47 -86 60 -26 13 -49 29 -52 37 -5&#10;13 160 224 176 224 12 0 31 -23 31 -37 0 -8 -22 -41 -50 -74 -27 -33 -50 -68&#10;-50 -78 0 -19 41 -61 78 -80 32 -17 65 6 186 128 l99 99 -19 30 c-10 16 -38&#10;58 -62 92 -24 34 -42 67 -39 73 6 15 182 113 219 122 20 5 29 2 36 -12 14 -25&#10;6 -35 -50 -59 -47 -20 -108 -67 -108 -82 0 -11 57 -97 73 -110 8 -7 33 0 82&#10;22 118 55 169 75 203 81 18 4 36 13 39 22 3 8 -2 44 -12 81 -10 37 -18 83 -19&#10;102 -1 33 1 35 44 43 25 4 65 12 90 17 25 4 68 7 95 7 47 -2 50 -4 53 -29z"/>
<path d="M3905 2431 c-34 -8 -263 -119 -270 -131 -17 -28 -279 -140 -328 -140&#10;-12 0 -32 -3 -45 -6 l-22 -6 2 -622 3 -621 55 -6 c51 -6 126 -27 175 -49 11&#10;-5 35 -12 53 -15 l32 -7 0 247 0 246 63 -3 62 -3 3 -276 2 -276 58 -23 c138&#10;-55 162 -60 280 -60 124 0 149 5 257 56 39 17 81 35 95 39 14 5 50 20 80 36&#10;80 41 232 89 279 89 l41 0 0 624 0 624 -71 13 c-72 13 -206 74 -414 189 -119&#10;66 -198 90 -289 89 -39 -1 -85 -4 -101 -8z m94 -33 c2 -7 5 -195 8 -418 4&#10;-404 4 -406 -16 -407 -21 -2 -21 0 -21 418 0 342 2 419 13 419 8 0 15 -6 16&#10;-12z m-79 -418 c0 -403 0 -410 -20 -410 -20 0 -20 7 -20 403 0 222 3 407 7&#10;410 3 4 12 7 20 7 11 0 13 -75 13 -410z m-98 -15 c0 -213 -3 -390 -7 -393 -15&#10;-16 -25 31 -25 126 l0 102 -25 0 -25 0 0 -101 c0 -57 -4 -98 -9 -95 -5 4 -7&#10;-3 -4 -14 3 -11 0 -20 -6 -20 -8 0 -11 104 -11 368 l0 368 53 25 c28 14 53 25&#10;55 23 2 -1 4 -176 4 -389z m-174 -53 c2 -300 0 -342 -13 -342 -13 0 -15 44&#10;-15 346 0 272 3 345 13 342 9 -4 13 -84 15 -346z m761 317 c36 -39 44 -73 27&#10;-107 -25 -48 -44 -62 -87 -62 -94 0 -135 120 -60 177 27 21 97 16 120 -8z&#10;m-841 -311 c1 -161 -1 -305 -4 -320 -5 -26 -9 -28 -60 -28 l-54 0 1 283 c1&#10;274 7 354 24 314 4 -9 5 -48 3 -87 -2 -38 0 -64 4 -57 5 7 8 0 8 -18 0 -24 -2&#10;-27 -11 -15 -9 13 -10 13 -6 0 2 -8 18 -16 35 -18 l32 -3 0 110 c0 109 5 145&#10;20 136 4 -2 8 -136 8 -297z m-178 -62 c0 -268 -11 -362 -24 -209 -8 100 -8&#10;468 1 476 3 4 10 7 15 7 4 0 8 -123 8 -274z m1010 -41 l0 -206 -57 3 -58 3 -2&#10;194 c-1 107 0 199 3 203 3 4 30 8 60 8 l54 0 0 -205z m-350 -686 c0 -405 -1&#10;-430 -17 -427 -17 3 -18 33 -21 431 -2 422 -2 427 18 427 20 0 20 -6 20 -431z&#10;m85 379 c3 -29 5 -219 3 -422 -2 -278 -6 -370 -15 -373 -9 -3 -12 93 -13 421&#10;0 262 3 426 9 426 5 0 12 -24 16 -52z m95 -358 c0 -358 -2 -410 -15 -410 -13&#10;0 -15 52 -15 410 0 358 2 410 15 410 13 0 15 -52 15 -410z m90 290 c0 -119 0&#10;-120 24 -120 21 0 24 5 30 61 3 34 6 88 6 120 0 61 12 80 19 31 3 -15 5 -84 5&#10;-155 l1 -127 28 0 27 0 1 108 c0 59 4 130 8 157 15 104 22 -2 19 -324 -2 -249&#10;-6 -325 -15 -329 -10 -3 -13 19 -13 88 l0 91 -27 -3 -28 -3 -2 -100 c-1 -55&#10;-2 -103 -3 -107 0 -5 -6 -8 -14 -8 -20 0 -28 30 -25 98 2 47 0 58 -14 60 -25&#10;5 -37 -37 -37 -128 0 -65 -3 -78 -14 -74 -12 5 -15 67 -16 388 0 210 3 385 6&#10;389 4 4 13 7 21 7 10 0 13 -27 13 -120z m-360 5 l0 -55 -325 0 -325 0 0 55 0&#10;55 325 0 325 0 0 -55z"/>
</g>
</svg>